<?xml version="1.0" encoding="UTF-8" standalone="no"?>
<!DOCTYPE svg PUBLIC "-//W3C//DTD SVG 1.1//EN"
 "http://www.w3.org/Graphics/SVG/1.1/DTD/svg11.dtd">
<!-- Generated by graphviz version 2.43.0 (0)
 -->
<!-- Title: %3 Pages: 1 -->
<svg width="230pt" height="116pt"
 viewBox="0.00 0.00 230.34 116.00" xmlns="http://www.w3.org/2000/svg" xmlns:xlink="http://www.w3.org/1999/xlink">
<g id="graph0" class="graph" transform="scale(1 1) rotate(0) translate(4 112)">
<title>%3</title>
<polygon fill="white" stroke="transparent" points="-4,4 -4,-112 226.34,-112 226.34,4 -4,4"/>
<!-- [12, 42] -->
<g id="node1" class="node">
<title>[12, 42]</title>
<ellipse fill="none" stroke="black" cx="117.1" cy="-90" rx="46.59" ry="18"/>
<text text-anchor="middle" x="117.1" y="-86.3" font-family="Times,serif" font-size="14.00">[12, 42]</text>
</g>
<!-- [2, 3] -->
<g id="node2" class="node">
<title>[2, 3]</title>
<ellipse fill="none" stroke="black" cx="35.1" cy="-18" rx="35.19" ry="18"/>
<text text-anchor="middle" x="35.1" y="-14.3" font-family="Times,serif" font-size="14.00">[2, 3]</text>
</g>
<!-- [12, 42]&#45;&#45;[2, 3] -->
<g id="edge1" class="edge">
<title>[12, 42]&#45;&#45;[2, 3]</title>
<path fill="none" stroke="black" d="M98.49,-73.12C84.69,-61.34 66.01,-45.39 52.51,-33.86"/>
</g>
<!-- [25] -->
<g id="node3" class="node">
<title>[25]</title>
<ellipse fill="none" stroke="black" cx="117.1" cy="-18" rx="29.5" ry="18"/>
<text text-anchor="middle" x="117.1" y="-14.3" font-family="Times,serif" font-size="14.00">[25]</text>
</g>
<!-- [12, 42]&#45;&#45;[25] -->
<g id="edge2" class="edge">
<title>[12, 42]&#45;&#45;[25]</title>
<path fill="none" stroke="black" d="M117.1,-71.7C117.1,-60.85 117.1,-46.92 117.1,-36.1"/>
</g>
<!-- [50] -->
<g id="node4" class="node">
<title>[50]</title>
<ellipse fill="none" stroke="black" cx="193.1" cy="-18" rx="29.5" ry="18"/>
<text text-anchor="middle" x="193.1" y="-14.3" font-family="Times,serif" font-size="14.00">[50]</text>
</g>
<!-- [12, 42]&#45;&#45;[50] -->
<g id="edge3" class="edge">
<title>[12, 42]&#45;&#45;[50]</title>
<path fill="none" stroke="black" d="M134.34,-73.12C147.31,-61.18 164.92,-44.95 177.47,-33.39"/>
</g>
</g>
</svg>
